<mxfile host="app.diagrams.net" modified="2023-09-13T08:50:50.559Z" agent="Mozilla/5.0 (Windows NT 10.0; Win64; x64) AppleWebKit/537.36 (KHTML, like Gecko) Chrome/115.0.0.0 Safari/537.36 OPR/101.0.0.0" etag="Bb4_t1mc_rQI36gThxJO" version="21.7.4" type="github">
  <diagram name="Страница — 1" id="9sleW0UZUUKnoqd_rvJ_">
    <mxGraphModel dx="1817" dy="561" grid="1" gridSize="10" guides="1" tooltips="1" connect="1" arrows="1" fold="1" page="1" pageScale="1" pageWidth="827" pageHeight="1169" math="0" shadow="0">
      <root>
        <mxCell id="0" />
        <mxCell id="1" parent="0" />
        <mxCell id="YYoHCfP5z4Vt1yhT5GhD-3" value="" style="edgeStyle=orthogonalEdgeStyle;rounded=0;orthogonalLoop=1;jettySize=auto;html=1;" edge="1" parent="1" source="YYoHCfP5z4Vt1yhT5GhD-1" target="YYoHCfP5z4Vt1yhT5GhD-2">
          <mxGeometry relative="1" as="geometry" />
        </mxCell>
        <mxCell id="YYoHCfP5z4Vt1yhT5GhD-1" value="Нова заявка&lt;br&gt;" style="rounded=1;whiteSpace=wrap;html=1;" vertex="1" parent="1">
          <mxGeometry x="80" y="160" width="120" height="60" as="geometry" />
        </mxCell>
        <mxCell id="YYoHCfP5z4Vt1yhT5GhD-5" value="" style="edgeStyle=orthogonalEdgeStyle;rounded=0;orthogonalLoop=1;jettySize=auto;html=1;" edge="1" parent="1" source="YYoHCfP5z4Vt1yhT5GhD-2" target="YYoHCfP5z4Vt1yhT5GhD-4">
          <mxGeometry relative="1" as="geometry" />
        </mxCell>
        <mxCell id="YYoHCfP5z4Vt1yhT5GhD-2" value="Операція в СRM" style="whiteSpace=wrap;html=1;rounded=1;" vertex="1" parent="1">
          <mxGeometry x="270" y="220" width="120" height="60" as="geometry" />
        </mxCell>
        <mxCell id="YYoHCfP5z4Vt1yhT5GhD-22" value="" style="edgeStyle=orthogonalEdgeStyle;rounded=0;orthogonalLoop=1;jettySize=auto;html=1;" edge="1" parent="1" source="YYoHCfP5z4Vt1yhT5GhD-4" target="YYoHCfP5z4Vt1yhT5GhD-21">
          <mxGeometry relative="1" as="geometry" />
        </mxCell>
        <mxCell id="YYoHCfP5z4Vt1yhT5GhD-26" value="Підтвердження&lt;br&gt;" style="edgeLabel;html=1;align=center;verticalAlign=middle;resizable=0;points=[];" vertex="1" connectable="0" parent="YYoHCfP5z4Vt1yhT5GhD-22">
          <mxGeometry x="-0.2909" y="-3" relative="1" as="geometry">
            <mxPoint x="3" y="15" as="offset" />
          </mxGeometry>
        </mxCell>
        <mxCell id="YYoHCfP5z4Vt1yhT5GhD-31" value="" style="edgeStyle=orthogonalEdgeStyle;rounded=0;orthogonalLoop=1;jettySize=auto;html=1;entryX=1.001;entryY=0.425;entryDx=0;entryDy=0;entryPerimeter=0;exitX=0.5;exitY=0;exitDx=0;exitDy=0;" edge="1" parent="1" source="YYoHCfP5z4Vt1yhT5GhD-4" target="YYoHCfP5z4Vt1yhT5GhD-12">
          <mxGeometry relative="1" as="geometry">
            <mxPoint x="630" y="200" as="sourcePoint" />
            <mxPoint x="510" y="50" as="targetPoint" />
          </mxGeometry>
        </mxCell>
        <mxCell id="YYoHCfP5z4Vt1yhT5GhD-33" value="Відмова" style="edgeLabel;html=1;align=center;verticalAlign=middle;resizable=0;points=[];" vertex="1" connectable="0" parent="YYoHCfP5z4Vt1yhT5GhD-31">
          <mxGeometry x="-0.506" relative="1" as="geometry">
            <mxPoint as="offset" />
          </mxGeometry>
        </mxCell>
        <mxCell id="YYoHCfP5z4Vt1yhT5GhD-4" value="Обробка менеджером" style="whiteSpace=wrap;html=1;rounded=1;" vertex="1" parent="1">
          <mxGeometry x="500" y="220" width="120" height="60" as="geometry" />
        </mxCell>
        <mxCell id="YYoHCfP5z4Vt1yhT5GhD-9" value="" style="edgeStyle=orthogonalEdgeStyle;rounded=0;orthogonalLoop=1;jettySize=auto;html=1;" edge="1" parent="1" source="YYoHCfP5z4Vt1yhT5GhD-6" target="YYoHCfP5z4Vt1yhT5GhD-1">
          <mxGeometry relative="1" as="geometry" />
        </mxCell>
        <mxCell id="YYoHCfP5z4Vt1yhT5GhD-17" value="" style="edgeStyle=orthogonalEdgeStyle;rounded=0;orthogonalLoop=1;jettySize=auto;html=1;" edge="1" parent="1" source="YYoHCfP5z4Vt1yhT5GhD-6" target="YYoHCfP5z4Vt1yhT5GhD-1">
          <mxGeometry relative="1" as="geometry" />
        </mxCell>
        <mxCell id="YYoHCfP5z4Vt1yhT5GhD-19" value="" style="edgeStyle=orthogonalEdgeStyle;rounded=0;orthogonalLoop=1;jettySize=auto;html=1;" edge="1" parent="1" source="YYoHCfP5z4Vt1yhT5GhD-6" target="YYoHCfP5z4Vt1yhT5GhD-18">
          <mxGeometry relative="1" as="geometry" />
        </mxCell>
        <mxCell id="YYoHCfP5z4Vt1yhT5GhD-6" value="Клієнт&lt;br&gt;" style="whiteSpace=wrap;html=1;rounded=1;" vertex="1" parent="1">
          <mxGeometry x="-80" y="220" width="120" height="60" as="geometry" />
        </mxCell>
        <mxCell id="YYoHCfP5z4Vt1yhT5GhD-14" value="" style="edgeStyle=orthogonalEdgeStyle;rounded=0;orthogonalLoop=1;jettySize=auto;html=1;" edge="1" parent="1" source="YYoHCfP5z4Vt1yhT5GhD-12" target="YYoHCfP5z4Vt1yhT5GhD-6">
          <mxGeometry relative="1" as="geometry" />
        </mxCell>
        <mxCell id="YYoHCfP5z4Vt1yhT5GhD-23" value="Повідомлення&lt;br&gt;про відмову" style="edgeLabel;html=1;align=center;verticalAlign=middle;resizable=0;points=[];" vertex="1" connectable="0" parent="YYoHCfP5z4Vt1yhT5GhD-14">
          <mxGeometry x="0.0545" y="-1" relative="1" as="geometry">
            <mxPoint as="offset" />
          </mxGeometry>
        </mxCell>
        <mxCell id="YYoHCfP5z4Vt1yhT5GhD-12" value="Зміна статусу в СRM на відмову" style="whiteSpace=wrap;html=1;rounded=1;" vertex="1" parent="1">
          <mxGeometry x="150" y="60" width="220" height="80" as="geometry" />
        </mxCell>
        <mxCell id="YYoHCfP5z4Vt1yhT5GhD-20" value="" style="edgeStyle=orthogonalEdgeStyle;rounded=0;orthogonalLoop=1;jettySize=auto;html=1;" edge="1" parent="1" source="YYoHCfP5z4Vt1yhT5GhD-18" target="YYoHCfP5z4Vt1yhT5GhD-2">
          <mxGeometry relative="1" as="geometry" />
        </mxCell>
        <mxCell id="YYoHCfP5z4Vt1yhT5GhD-18" value="Зміна заявки" style="rounded=1;whiteSpace=wrap;html=1;" vertex="1" parent="1">
          <mxGeometry x="80" y="280" width="120" height="60" as="geometry" />
        </mxCell>
        <mxCell id="YYoHCfP5z4Vt1yhT5GhD-28" value="" style="edgeStyle=orthogonalEdgeStyle;rounded=0;orthogonalLoop=1;jettySize=auto;html=1;" edge="1" parent="1" source="YYoHCfP5z4Vt1yhT5GhD-21" target="YYoHCfP5z4Vt1yhT5GhD-27">
          <mxGeometry relative="1" as="geometry" />
        </mxCell>
        <mxCell id="YYoHCfP5z4Vt1yhT5GhD-34" value="Виконано&lt;br&gt;" style="edgeLabel;html=1;align=center;verticalAlign=middle;resizable=0;points=[];" vertex="1" connectable="0" parent="YYoHCfP5z4Vt1yhT5GhD-28">
          <mxGeometry x="0.2857" y="6" relative="1" as="geometry">
            <mxPoint x="20" y="-6" as="offset" />
          </mxGeometry>
        </mxCell>
        <mxCell id="YYoHCfP5z4Vt1yhT5GhD-21" value="Виконання" style="whiteSpace=wrap;html=1;rounded=1;" vertex="1" parent="1">
          <mxGeometry x="500" y="380" width="120" height="60" as="geometry" />
        </mxCell>
        <mxCell id="YYoHCfP5z4Vt1yhT5GhD-35" style="edgeStyle=orthogonalEdgeStyle;rounded=0;orthogonalLoop=1;jettySize=auto;html=1;entryX=0.5;entryY=1;entryDx=0;entryDy=0;" edge="1" parent="1" source="YYoHCfP5z4Vt1yhT5GhD-27" target="YYoHCfP5z4Vt1yhT5GhD-6">
          <mxGeometry relative="1" as="geometry" />
        </mxCell>
        <mxCell id="YYoHCfP5z4Vt1yhT5GhD-36" value="Повідомлення&lt;br style=&quot;border-color: var(--border-color);&quot;&gt;про виконання, &lt;br&gt;зарахування бонусів" style="edgeLabel;html=1;align=center;verticalAlign=middle;resizable=0;points=[];" vertex="1" connectable="0" parent="YYoHCfP5z4Vt1yhT5GhD-35">
          <mxGeometry x="0.1051" relative="1" as="geometry">
            <mxPoint y="13" as="offset" />
          </mxGeometry>
        </mxCell>
        <mxCell id="YYoHCfP5z4Vt1yhT5GhD-27" value="Зміна статусу в СRM на підтвердження" style="whiteSpace=wrap;html=1;rounded=1;" vertex="1" parent="1">
          <mxGeometry x="110" y="365" width="260" height="90" as="geometry" />
        </mxCell>
      </root>
    </mxGraphModel>
  </diagram>
</mxfile>
